<svg width="52" height="52" viewBox="-3 -3 58 58" fill="none" xmlns="http://www.w3.org/2000/svg">
  <path
    fill-rule="evenodd"
    clip-rule="evenodd"
    d="M8.32445 1.5H40.5478C44.2339 1.5 47.5487 3.7442 48.9177 7.16668C50.7766 11.8139 50.7132 17.0092 48.7416 21.6097L47.5468 24.3976C44.7301 30.9697 44.4233 38.3469 46.6844 45.1302L47.8162 48.5257C48.14 49.497 47.417 50.5 46.3932 50.5H15.3142C11.1273 50.5 7.41021 47.8209 6.08621 43.8488C4.12889 37.9769 4.39452 31.5908 6.83272 25.9017L6.97086 25.5794C10.0225 18.4588 10.0915 10.3567 7.2173 3.17128C6.89359 2.36202 7.49496 1.5 8.32445 1.5ZM5.82458 3.72837C5.11459 1.9534 6.41275 0 8.32445 0H40.5478C44.8473 0 48.7136 2.61763 50.3104 6.60959C52.317 11.6262 52.2487 17.2344 50.1203 22.2005L48.9255 24.9885C46.2536 31.2229 45.9625 38.2211 48.1074 44.6559L49.2392 48.0513C49.8868 49.9939 48.4409 52 46.3932 52H15.3142C10.4817 52 6.19136 48.9077 4.66319 44.3232C2.5897 38.1027 2.87109 31.3376 5.454 25.3108L5.59214 24.9885C8.48552 18.2373 8.55249 10.5481 5.82458 3.72837ZM36.4805 30.683L36.4082 30.7264C36.3653 32.356 35.683 33.7632 34.3965 34.9366C33.1201 36.1008 31.4631 36.7841 29.4462 37.0153V37.3675C29.4462 38.4287 28.586 39.2889 27.5249 39.2889C26.4638 39.2889 25.6036 38.4287 25.6036 37.3675V36.8334C23.9058 36.4449 22.4507 35.7124 21.2323 34.6463C19.9648 33.5373 19.079 32.2485 18.5847 30.7946C18.5322 30.6401 18.618 30.4728 18.7741 30.4253L22.5014 29.2903C22.6456 29.2463 22.7994 29.3207 22.8545 29.4611C23.2674 30.5134 23.9454 31.3655 24.8958 32.0348C25.8346 32.696 26.9793 33.0331 28.3306 33.0331C29.4236 33.0331 30.2853 32.7903 30.9385 32.3293C31.6026 31.8605 31.8951 31.3504 31.8951 30.7857C31.8951 30.3393 31.7226 29.9498 31.3668 29.6063C31.0088 29.2606 30.3718 28.9264 29.4349 28.6371L24.321 27.0259C22.8822 26.5798 21.7287 25.898 20.8752 24.9857C20.0102 24.061 19.5782 22.9386 19.5782 21.6216C19.5782 20.0932 20.1756 18.7588 21.3483 17.6301C22.4667 16.5536 23.8994 15.8974 25.6176 15.651V14.6324C25.6176 13.5713 26.4778 12.7111 27.5389 12.7111C28.6 12.7111 29.4603 13.5713 29.4603 14.6324V15.8094C30.9726 16.1384 32.2974 16.7432 33.4411 17.6388C34.6385 18.5766 35.4865 19.6679 35.9704 20.9145L36.0844 21.208L31.909 22.4285L31.8004 22.2149C31.4089 21.4451 30.7936 20.8255 29.9529 20.3451C29.1175 19.8677 28.1728 19.6265 27.1115 19.6265C26.1999 19.6265 25.4779 19.8275 24.9368 20.2051C24.3916 20.5854 24.1496 21.0235 24.1496 21.5095C24.1496 21.8693 24.28 22.1734 24.5532 22.4364C24.8344 22.707 25.2758 22.9417 25.903 23.1237L25.9112 23.1263L30.8976 24.737C32.6562 25.2762 34.0288 25.9643 34.995 26.8134C35.9963 27.6932 36.4805 28.9437 36.4805 30.5195V30.683Z"
    fill="#40404B"
  />
</svg>
