<?xml version="1.0" encoding="UTF-8"?><svg id="Layer_1" xmlns="http://www.w3.org/2000/svg" viewBox="0 0 115.86301 115.54201" ><defs><style>.cls-1{fill:#d9d9d9;}.cls-2{fill:#000;fill-opacity:0}</style></defs><ellipse class="cls-2" cx="57.9315" cy="57.77101" rx="46.53781" ry="47.03459"/><path class="cls-1" d="M57.9315,0C25.93629,0,0,25.86559,0,57.77101s25.93629,57.771,57.9315,57.771c31.99331,0,57.9315-25.86559,57.9315-57.771S89.92482,0,57.9315,0ZM57.9315,104.8056c-25.70127,0-46.53781-21.05819-46.53781-47.03459S32.23023,10.73642,57.9315,10.73642s46.53781,21.05818,46.53781,47.03459-20.83654,47.03459-46.53781,47.03459Z"/><path class="cls-1" d="M104.31456,54.10622l-16.86413.04013-8.40721,15.12918-20.97984-51.14458-18.87423,42.01319-27.7381-.05923c.11082,2.31389.3917,4.58384.82353,6.79838l31.30734.06688,14.19673-31.60352,20.33976,49.5816,13.33501-23.99498,12.90126-.03057c.06688-1.03562.11464-2.07888.11464-3.13169,0-1.23434-.06306-2.45338-.15476-3.66479Z"/></svg>