<?xml version="1.0" encoding="utf-8"?>
<!-- Generator: Adobe Illustrator 27.6.1, SVG Export Plug-In . SVG Version: 6.00 Build 0)  -->
<svg version="1.2" baseProfile="tiny-ps" id="Layer_1" xmlns="http://www.w3.org/2000/svg" xmlns:xlink="http://www.w3.org/1999/xlink"
	 viewBox="0 0 628.75 628.75" xml:space="preserve">
	 <title>WSO2</title>
<rect fill="#FFFFFF" width="628.75" height="628.75"/>
<g>
	<polygon fill="#FF7300" points="237.48,209.33 187.61,336.63 137.47,200.49 84.33,336.33 38.99,209.33 18.37,209.33 83.52,387.69 
		136.97,251.85 187.05,387.84 258.1,209.33 	"/>
	<path fill="#FF7300" d="M337.82,299.95c-8.31-6.8-51.89-29.43-57.49-33.35c-5.58-3.9-8.39-9.59-8.39-17.04
		c0-7.48,2.84-13.54,8.52-18.19c5.68-4.69,12.59-7.01,20.73-7.01c5.24,0,9.74,1.01,13.47,3.06c3.73,2.04,7.3,5.36,10.68,9.93
		l1.79,2.78c0.5,0.36,1.2,1.21,2.04,2.54l15.01-9.66c-4.92-8.65-11.06-15.23-18.45-19.73c-7.37-4.49-15.3-6.74-23.77-6.74
		c-14.42,0-26.22,4.06-35.38,12.21c-9.15,8.14-13.72,18.6-13.72,31.32c0,12.03,4.13,21.33,12.45,27.84
		c8.32,6.53,49.78,28.05,56.23,32.47c6.45,4.4,9.66,10.93,9.66,19.58c0,9.84-3.24,18.01-9.78,24.53c-6.53,6.55-14.81,9.8-24.8,9.8
		c-8.81,0-16.11-2.71-21.87-8.14c-5.77-5.43-9.85-13.21-12.22-23.39l-18.32,5.6c1.6,6.86,3.93,12.98,6.95,18.32
		c3.1,5.44,6.94,10.06,11.51,13.84c9.07,7.56,20.56,11.34,34.48,11.34c14.75,0,27.29-5.07,37.65-15.15
		c10.34-10.09,15.51-22.43,15.51-37.03C350.28,316.64,346.13,306.72,337.82,299.95z"/>
	<path d="M551.43,288.27c4.27-1.21,8.81-1.83,13.67-1.83c12.93,0,23.39,4.18,31.36,12.54c8,8.32,12.02,18.16,12.02,29.5
		c0,7.97-1.92,15.43-5.75,22.41c-3.81,6.97-11.23,16.44-22.27,28.33l-34.97,37.75h64.88v13.58h-95.46l53.71-58
		c10.88-11.68,17.97-20.33,21.26-25.97c3.3-5.62,4.92-11.57,4.92-17.8c0-7.91-2.94-14.72-8.85-20.41
		c-5.88-5.69-13.11-8.55-21.66-8.55c-4.89,0-9.32,0.89-13.32,2.66C551.34,299.07,551.48,289.55,551.43,288.27z"/>
	<g>
		<ellipse fill-rule="evenodd" fill="#FF7300" cx="448.78" cy="294.16" rx="79.09" ry="79.94"/>
		<path fill="#FFFFFF" d="M529.59,288.08l-31.78,0.07l-13.96,25.13l-34.85-84.96l-31.35,69.79l-50.79-0.09
			c0.19,3.84,0.65,7.62,1.37,11.29l56.71,0.11l23.59-52.49l33.78,82.36l22.16-39.86l25.2-0.06c0.11-1.72,0.19-3.46,0.19-5.2
			C529.85,292.11,529.74,290.08,529.59,288.08z"/>
		<path d="M448.78,198.2c-53.15,0-96.23,42.96-96.23,95.96s43.09,95.96,96.23,95.96c53.15,0,96.23-42.96,96.23-95.96
			S501.93,198.2,448.78,198.2z M448.78,372.29c-42.69,0-77.3-34.98-77.3-78.13s34.61-78.13,77.3-78.13s77.3,34.98,77.3,78.13
			S491.47,372.29,448.78,372.29z"/>
	</g>
</g>
</svg>
